Subj06walk_45
version=1
nRows=69
nColumns=19
inDegrees=no
endheader
time	l_ground_force_vx	l_ground_force_vy	l_ground_force_vz	l_ground_force_px	l_ground_force_py	l_ground_force_pz	ground_force_vx	ground_force_vy	ground_force_vz	ground_force_px	ground_force_py	ground_force_pz	l_ground_torque_x	l_ground_torque_y	l_ground_torque_z	ground_torque_x	ground_torque_y	ground_torque_z	
14.76	0	0	0	0	0	0	-36.9934141061746	513.488815274992	-22.588176678636	0.0791357116003253	0	0.0595447583627216	0	0	0	0	-1.33815000918363	0
14.77	0	0	0	0	0	0	-31.9230225764039	496.465646154638	-20.351907814058	0.0690941062557071	0	0.0597151364402614	0	0	0	0	-1.01739619955219	0
14.78	0	0	0	0	0	0	-27.1009903044587	480.755221913164	-18.7138216028756	0.0594780620900725	0	0.0598244528140809	0	0	0	0	-0.848784189187862	0
14.79	0	0	0	0	0	0	-22.8922095307769	466.701644352183	-17.8206853043003	0.0507388484458919	0	0.0598664792894945	0	0	0	0	-0.674655117488948	0
14.8	0	0	0	0	0	0	-19.701476356015	454.400343544036	-17.3706326251789	0.0432687216211436	0	0.0595968050177549	0	0	0	0	-0.47983263167286	0
14.81	0	0	0	0	0	0	-17.4142583414667	444.239737633383	-16.9002934864473	0.0366276344974047	0	0.0590363962593183	0	0	0	0	-0.375881490056857	0
14.82	0	0	0	0	0	0	-15.5073647842759	436.602524783035	-16.1295188809187	0.0300409887212919	0	0.0581280157164731	0	0	0	0	-0.245141496113217	0
14.83	0	0	0	0	0	0	-13.4541029275161	432.103031892429	-14.8722293539785	0.0227114296282684	0	0.0571049837147047	0	0	0	0	0.168426178873125	0
14.84	0	0	0	0	0	0	-11.3467500329334	430.622967000157	-13.31144826051	0.0145947842116408	0	0.0560349408589497	0	0	0	0	0.466435623718157	0
14.85	0	0	0	0	0	0	-9.41430168117728	431.729956536281	-11.9370281081937	0.00604652536787058	0	0.054947715923676	0	0	0	0	0.402108305130952	0
14.86	0	0	0	0	0	0	-7.75640543915315	434.858422153768	-11.0271703584822	-0.00274396647684013	0	0.0537555548672595	0	0	0	0	0.119513202129495	0
14.87	0	0	0	0	0	0	-6.27491392292046	439.723229898821	-10.4855338809819	-0.0122403946532886	0	0.052723710577059	0	0	0	0	-0.210078195943651	0
14.88	0	0	0	0	0	0	-4.71691102906489	445.840583623431	-10.1177320056774	-0.022763198611116	0	0.0519136207135611	0	0	0	0	-0.493654730555136	0
14.89	0	0	0	0	0	0	-2.64550810260389	452.79003046395	-9.76683939156645	-0.0343373256504769	0	0.0513268116566365	0	0	0	0	-0.696797611059858	0
14.9	0	0	0	0	0	0	0.2488388724751	460.200421985611	-9.4645300775713	-0.0470835814216581	0	0.0507881099863531	0	0	0	0	-0.61600443058581	0
14.91	0	0	0	0	0	0	4.2041877201766	467.964859907518	-9.42363599496013	-0.0607607595626496	0	0.0503094378231479	0	0	0	0	-0.175729384190801	0
14.92	0	0	0	0	0	0	9.21725473092659	476.298074682333	-9.7302526584717	-0.0747963389082966	0	0.0498707026965942	0	0	0	0	0.558516246460271	0
14.93	0	0	0	0	0	0	15.3278884325207	485.725487939228	-10.3132978620593	-0.0888220013261256	0	0.0496733400716638	0	0	0	0	1.41608218976264	0
14.94	0	0	0	0	0	0	22.199935290305	496.596746651134	-11.3129276459572	-0.102219578800811	0	0.0497171734918509	0	0	0	0	2.10202545568378	0
14.95	0	0	0	0	0	0	29.5790344141954	509.094889165897	-12.6760659177742	-0.114549303468096	0	0.0500312774240726	0	0	0	0	2.55772119244929	0
14.96	0	0	0	0	0	0	37.5201542271488	522.938949825108	-14.3554282617159	-0.126056290533824	0	0.050476189033761	0	0	0	0	2.93484956303475	0
14.97	0	0	0	0	0	0	46.0019021938476	537.651793140815	-16.1960607250758	-0.137285995590138	0	0.050991431354711	0	0	0	0	3.39316028701433	0
14.98	0	0	0	0	0	0	54.6921962441172	552.175138365014	-17.9005712807386	-0.14829465006502	0	0.0513773670821596	0	0	0	0	3.8840989689498	0
14.99	0	0	0	0	0	0	63.1633089556192	565.58770771057	-19.144446761402	-0.158894809518269	0	0.0516083597816094	0	0	0	0	4.20879745341999	0
15	0	0	0	0	0	0	70.9121846655916	577.238547548536	-19.6370107343156	-0.168938687375203	0	0.0517276921181319	0	0	0	0	4.20092931944664	0
15.01	0	0	0	0	0	0	77.5049671441828	586.373242017808	-19.2791070291749	-0.178361640960144	0	0.0517147488964959	0	0	0	0	4.06911123111469	0
15.02	0	0	0	0	0	0	82.871035037989	591.757841113674	-18.1957768421063	-0.187317284430871	0	0.0515152896674458	0	0	0	0	4.00070033277854	0
15.03	4.30715728271937	45.2567058173911	-0.67241648997187	0.272542922603181	0	-0.0289105714596792	87.5918705892475	591.602713313438	-16.6001862496387	-0.196305091809018	0	0.0511329317570856	0	1.80303731998235	0	0	4.0550473979052	0
15.04	11.7041302983078	82.2052354095396	-3.29267737301181	0.245747915739069	0	-0.0348416490718064	92.1205186363948	583.816313178168	-14.6388970650954	-0.205870431407832	0	0.0505388085614553	0	2.15740815950898	0	0	4.43910064565469	0
15.05	15.049836076604	124.934924392279	-6.29313398915106	0.231034671906172	0	-0.0374894145874595	96.3052063305523	566.587081904931	-12.5479103409618	-0.216249415193741	0	0.0497631534137114	0	2.83986169642891	0	0	5.1073707754575	0
15.06	11.7281653239076	169.922370907281	-8.95082557824012	0.223152671133656	0	-0.0389323221664799	99.350901527176	538.811894990043	-10.3171678658731	-0.227223736332445	0	0.0487884613366747	0	3.71932398138976	0	0	5.73357282678025	0
15.07	3.19257714811918	217.85730729638	-10.3529964909547	0.219122989746021	0	-0.0406043880069509	100.243846128451	500.447054976466	-7.7627172486906	-0.238493835786029	0	0.0476692667717062	0	4.39831877913656	0	0	6.21728759557346	0
15.08	-9.38697104325361	271.16983914138	-9.35617849439307	0.217092721721502	0	-0.0428500193936703	97.7628409293035	452.36353718396	-4.83546908466201	-0.249620989927486	0	0.0463352882177529	0	4.68100889556977	0	0	6.52991432545807	0
15.09	-24.3379405190428	330.926583586243	-5.76574831065487	0.216629576204375	0	-0.045520308974004	91.1686689253818	396.402792484961	-1.63888956411448	-0.260154233773541	0	0.0447570857454714	0	4.61134376691424	0	0	6.68369392927687	0
15.1	-40.3626021941405	393.252678631381	-0.175371948616113	0.216929013009565	0	-0.0480984063976073	80.94565156636	335.049610835894	1.66319607031883	-0.270531977927935	0	0.0428482561182707	0	4.32453207792551	0	0	6.75045989970321	0
15.11	-55.9967796396647	450.42129809351	6.13300692315978	0.217219419361627	0	-0.0502699955130857	68.6324877204389	271.501116096747	4.61762341383302	-0.281611612945028	0	0.0404102805521716	0	4.09721800976086	0	0	6.63538961184355	0
15.12	-69.8178346999386	496.117475987851	12.0662728076491	0.217155376474045	0	-0.0518892336743784	56.1050675082944	209.657070104707	6.32884655565662	-0.294002902987112	0	0.0374092683577052	0	3.92695573135742	0	0	6.18302221621738	0
15.13	-81.2471436965898	530.40314084421	17.4007559224008	0.216263657096596	0	-0.0529258955088689	44.7100789655686	153.295374953301	6.11420480578427	-0.307725046525197	0	0.033935293825564	0	3.74144783727431	0	0	5.31784813503459	0
15.14	-90.1478580900301	557.677645886046	21.8532111996645	0.213976591520722	0	-0.0534336650727006	34.8733590024457	105.256568486142	4.30700046969244	-0.321780123992595	0	0.0300882155291497	0	3.70183792903719	0	0	4.14156275069335	0
15.15	-96.0711130336609	581.724884343356	24.4801519305102	0.209984687146043	0	-0.0535217996637567	26.286905218033	67.1178911288307	1.88961064383311	-0.33372663296072	0	0.0250984558998616	0	4.01541954706296	0	0	2.95412773892975	0
15.16	-98.9315689205766	604.032307591287	24.9111581541143	0.20413918100254	0	-0.0533685463210229	18.741847710703	39.1194376903652	-0.184266781088064	-0.337843237765575	0	0.0180778714170338	0	4.65252960559232	0	0	1.88766847176703	0
15.17	-98.8528310168271	623.880782413461	24.0240437876666	0.196637002543003	0	-0.0531027714790287	12.7056748602527	20.1175924523349	-1.41103505060413	-0.320947266625221	0	0.00705790436962067	0	5.3144945051691	0	0	1.05239605364383	0
15.18	-96.3889556369923	639.465501986354	23.0732106911767	0.188028815261464	0	-0.0528406898732296	0	0	0	0	0	0	0	5.79299010184577	0	0	0	0
15.19	-92.5045906307845	648.889494491078	22.9819885705205	0.17906177287733	0	-0.0525466325672915	0	0	0	0	0	0	0	5.99546015956849	0	0	0	0
15.2	-88.0044981189997	650.905086470477	24.0222937584103	0.170077339584863	0	-0.0522611752128288	0	0	0	0	0	0	0	5.97117026643078	0	0	0	0
15.21	-83.0155237021316	645.105652906878	26.1438770798051	0.161210988832157	0	-0.0519956544783609	0	0	0	0	0	0	0	5.86214800268673	0	0	0	0
15.22	-77.4600132350807	632.481551424149	28.8243983442008	0.15248859094049	0	-0.0518175460342799	0	0	0	0	0	0	0	5.71211393704263	0	0	0	0
15.23	-71.2943536126995	614.996902862305	31.1317114537997	0.143600546186768	0	-0.051739565435783	0	0	0	0	0	0	0	5.43946123411816	0	0	0	0
15.24	-64.5339611056519	594.873809949778	32.4011344583946	0.13411108602606	0	-0.0518241117831949	0	0	0	0	0	0	0	4.79218672584167	0	0	0	0
15.25	-57.6946761547634	573.977479799663	32.6752658128352	0.124390522698552	0	-0.0520364375390272	0	0	0	0	0	0	0	3.90050432202559	0	0	0	0
15.26	-51.4555710912458	553.741657752335	32.1748301561994	0.114977497982203	0	-0.0523479453085547	0	0	0	0	0	0	0	3.15114344542702	0	0	0	0
15.27	-46.1349233944852	534.878864734045	31.0104655052845	0.10606344611272	0	-0.0526144216057221	0	0	0	0	0	0	0	2.64322704291084	0	0	0	0
15.28	-41.4451184126154	517.702073461401	29.3110498864603	0.0974522887278988	0	-0.0527362840586931	0	0	0	0	0	0	0	2.18525731844842	0	0	0	0
15.29	-37.1159697925985	502.331993542351	27.276566060546	0.0889358322329313	0	-0.0527306927881834	0	0	0	0	0	0	0	1.7469563418894	0	0	0	0
15.3	-33.1018840439256	488.622019771053	25.0737660940881	0.0807285536363432	0	-0.0526111606210944	0	0	0	0	0	0	0	1.38814210165366	0	0	0	0
15.31	-29.3485318756794	476.293168402846	22.7594087705205	0.0728002555797857	0	-0.0524066357788091	0	0	0	0	0	0	0	1.06465344085144	0	0	0	0
15.32	-25.9626521026272	465.244984387812	20.4210320397846	0.0650528414349839	0	-0.0521054915153258	0	0	0	0	0	0	0	0.762516893382959	0	0	0	0
15.33	-23.3766762591439	455.898188778175	18.1888268337079	0.0576126269398157	0	-0.0517408825923421	0	0	0	0	0	0	0	0.634053852207829	0	0	0	0
15.34	-21.650590574823	448.694721987404	16.1430187596144	0.0501770884332718	0	-0.051344749385946	0	0	0	0	0	0	0	0.811794040231696	0	0	0	0
15.35	-20.38302325007	443.591963962607	14.4126751000086	0.0419335085543895	0	-0.0508876566201379	0	0	0	0	0	0	0	1.23593131133032	0	0	0	0
15.36	-19.1875304025887	439.946556449593	13.0713687838373	0.0324351540546295	0	-0.0501955966137922	0	0	0	0	0	0	0	1.7027883056975	0	0	0	0
15.37	-17.7067952678589	437.269303524142	12.136058958228	0.0215164245649716	0	-0.0492221772836767	0	0	0	0	0	0	0	2.0217495348133	0	0	0	0
15.38	-15.597544704325	435.595535116155	11.5360036263131	0.00911187420461184	0	-0.048110341741672	0	0	0	0	0	0	0	2.0799805671005	0	0	0	0
15.39	-12.8347583048291	435.193594388272	11.3306081913308	-0.00410255804625792	0	-0.0469485240017424	0	0	0	0	0	0	0	1.76209641057772	0	0	0	0
15.4	-9.7801792512977	436.622940116423	11.5341985426941	-0.0171787217512768	0	-0.0458623330882504	0	0	0	0	0	0	0	1.13842884749203	0	0	0	0
15.41	-6.62011230991065	440.478076437559	11.909282556045	-0.0297253948762228	0	-0.0451562060871266	0	0	0	0	0	0	0	0.509373729932552	0	0	0	0
15.42	-2.97799391680299	446.709115546934	12.4599320036704	-0.041796875704709	0	-0.0448357156970385	0	0	0	0	0	0	0	-0.00457369176338954	0	0	0	0
15.43	1.55061461615545	455.264874007009	13.1889657968834	-0.0539337478733227	0	-0.0450144099426772	0	0	0	0	0	0	0	-0.583784657744876	0	0	0	0
15.44	7.06478636822025	466.173797513476	14.0515165973859	-0.0665096915085499	0	-0.0458350244661735	0	0	0	0	0	0	0	-1.14842701815293	0	0	0	0
